HIERARCHY
ROOT Pelvis
{
	OFFSET 0.000000 0.000000 0.000000
	CHANNELS 6 Xposition Yposition Zposition Xrotation Yrotation Zrotation
	JOINT LeftUpLeg_virtual
	{
		OFFSET 0.000000 0.000000 0.000000
		CHANNELS 3 Xrotation Yrotation Zrotation
		JOINT LeftUpLeg
		{
			OFFSET 18.735201 -5.666702 -4.541200
			CHANNELS 3 Xrotation Yrotation Zrotation
			JOINT LeftLeg
			{
				OFFSET -0.021200 -31.938179 0.493100
				CHANNELS 3 Xrotation Yrotation Zrotation
				JOINT LeftFoot
				{
					OFFSET 0.021200 -31.938179 -4.336299
					CHANNELS 3 Xrotation Yrotation Zrotation
					JOINT LeftToeBase
					{
						OFFSET 0.943001 -26.722000 15.023500
						CHANNELS 3 Xrotation Yrotation Zrotation
						End Site
						{
							OFFSET 0 0 0
						}
					}
				}
			}
		}
	}
	JOINT RightUpLeg_virtual
	{
		OFFSET 0.000000 0.000000 0.000000
		CHANNELS 3 Xrotation Yrotation Zrotation
		JOINT RightUpLeg
		{
			OFFSET -18.735201 -5.666702 -4.541200
			CHANNELS 3 Xrotation Yrotation Zrotation
			JOINT RightLeg
			{
				OFFSET 0.018946 -31.938133 0.493100
				CHANNELS 3 Xrotation Yrotation Zrotation
				JOINT RightFoot
				{
					OFFSET -0.018946 -31.938126 -4.336299
					CHANNELS 3 Xrotation Yrotation Zrotation
					JOINT RightToeBase
					{
						OFFSET -0.943001 -26.722004 15.023500
						CHANNELS 3 Xrotation Yrotation Zrotation
						End Site
						{
							OFFSET 0 0 0
						}
					}
				}
			}
		}
	}
	JOINT Hips_virtual
	{
		OFFSET 0.000000 0.000000 0.000000
		CHANNELS 3 Xrotation Yrotation Zrotation
		JOINT Hips
		{
			OFFSET -0.000000 -0.000000 -0.000000
			CHANNELS 3 Xrotation Yrotation Zrotation
			JOINT Spine
			{
				OFFSET 0.000000 10.199997 -0.299500
				CHANNELS 3 Xrotation Yrotation Zrotation
				JOINT Spine1
				{
					OFFSET 0.000000 11.900002 -1.516600
					CHANNELS 3 Xrotation Yrotation Zrotation
					JOINT Spine2
					{
						OFFSET 0.000000 13.600006 -2.842500
						CHANNELS 3 Xrotation Yrotation Zrotation
						JOINT Neck_virtual
						{
							OFFSET 0.000000 0.000000 0.000000
							CHANNELS 3 Xrotation Yrotation Zrotation
							JOINT Neck
							{
								OFFSET 0.000000 9.624100 -2.890100
								CHANNELS 3 Xrotation Yrotation Zrotation
								JOINT Head
								{
									OFFSET 0.000000 14.068802 -1.351900
									CHANNELS 3 Xrotation Yrotation Zrotation
									End Site
									{
										OFFSET 0 0 0
									}
								}
							}
						}
						JOINT LeftShoulder_virtual
						{
							OFFSET 0.000000 0.000000 0.000000
							CHANNELS 3 Xrotation Yrotation Zrotation
							JOINT LeftShoulder
							{
								OFFSET 15.263000 10.923401 -0.547700
								CHANNELS 3 Xrotation Yrotation Zrotation
								JOINT LeftArm
								{
									OFFSET 25.438599 -2.830597 -13.032500
									CHANNELS 3 Xrotation Yrotation Zrotation
									JOINT LeftForeArm
									{
										OFFSET 29.960503 0.000000 0.000000
										CHANNELS 3 Xrotation Yrotation Zrotation
										JOINT LeftHand
										{
											OFFSET 27.849251 0.000000 0.000000
											CHANNELS 3 Xrotation Yrotation Zrotation
											End Site
											{
												OFFSET 0 0 0
											}
										}
									}
								}
							}
						}
						JOINT RightShoulder_virtual
						{
							OFFSET 0.000000 0.000000 0.000000
							CHANNELS 3 Xrotation Yrotation Zrotation
							JOINT RightShoulder
							{
								OFFSET -15.263000 10.923401 -0.547700
								CHANNELS 3 Xrotation Yrotation Zrotation
								JOINT RightArm
								{
									OFFSET -25.438599 -2.830597 -13.032500
									CHANNELS 3 Xrotation Yrotation Zrotation
									JOINT RightForeArm
									{
										OFFSET -29.960503 0.000000 0.000000
										CHANNELS 3 Xrotation Yrotation Zrotation
										JOINT RightHand
										{
											OFFSET -27.849251 0.000000 0.000000
											CHANNELS 3 Xrotation Yrotation Zrotation
											End Site
											{
												OFFSET 0 0 0
											}
										}
									}
								}
							}
						}
					}
				}
			}
		}
	}
}
MOTION
Frames: 4
Frame Time: 0.03333333
1.348740 60.237019 5.679264 0.000000 0.000000 0.000000 -13.572217 -26.063409 0.893343 -66.560146 -3.865216 3.780760 86.666269 17.472005 -18.247648 -23.672527 11.922555 7.728748 0.000000 0.000000 0.000000 -15.726061 -23.765273 -0.204581 -92.563762 -1.202833 -2.403320 86.632234 -15.957224 29.902257 34.769822 -6.156779 20.947881 0.000000 0.000000 0.000000 -15.390149 -23.344955 0.567749 -0.903552 -0.708994 -0.393579 12.612638 -3.176680 1.360208 15.122792 -3.058930 -1.984300 0.000000 0.000000 0.000000 13.750091 -0.667966 -0.473747 -2.288525 -11.397894 -3.721058 0.000000 0.000000 0.000000 10.906654 -5.008573 1.051265 -8.075777 -5.587037 -15.994575 -31.099713 -36.125895 -48.102307 1.481136 -40.914971 -0.159368 0.000000 0.000000 0.000000 13.689330 4.261177 -1.737658 -26.110509 23.221281 12.933934 -5.611905 22.988038 64.254178 100.412681 69.480646 -98.959947 0.000000 0.000000 0.000000 
1.447743 60.146065 4.835808 0.000000 0.000000 0.000000 -14.175811 -27.798030 0.745458 -65.177531 -3.326385 4.486375 86.938049 18.005828 -18.487946 -23.647484 12.770737 7.706286 0.000000 0.000000 0.000000 -16.258972 -25.339995 -0.207105 -90.505334 -0.754681 -3.358016 85.013719 -16.750349 29.868434 32.825879 -5.806472 22.865779 0.000000 0.000000 0.000000 -16.024712 -24.909353 0.449915 -0.907993 -0.716459 -0.393879 12.551549 -3.296600 0.860307 15.023479 -2.933430 -1.928718 0.000000 0.000000 0.000000 13.446050 -0.424237 -0.421557 -2.214837 -11.192489 -3.794064 0.000000 0.000000 0.000000 10.949376 -4.822817 0.989693 -7.978966 -5.091497 -15.364879 -31.787069 -36.953079 -47.905721 0.856768 -40.048148 -0.725540 0.000000 0.000000 0.000000 13.328358 4.531572 -1.622172 -26.342810 23.638772 13.273250 -5.958253 21.893878 64.115225 99.645213 69.766407 -97.694156 0.000000 0.000000 0.000000 
1.331431 60.233078 3.834236 0.000000 0.000000 0.000000 -14.698960 -29.379000 0.501092 -64.280310 -3.631270 5.193960 87.416777 18.329219 -18.398479 -22.559051 13.094659 7.498300 0.000000 0.000000 0.000000 -16.742867 -26.843070 -0.367479 -89.368852 -0.640052 -3.467670 83.285681 -17.274827 29.927761 30.764675 -5.150157 24.724865 0.000000 0.000000 0.000000 -16.507635 -26.354360 0.268638 -0.911171 -0.721134 -0.389655 12.570800 -3.186025 0.298198 14.938565 -2.808245 -1.855704 0.000000 0.000000 0.000000 13.212869 -0.188732 -0.353666 -2.049079 -10.994284 -3.821486 0.000000 0.000000 0.000000 10.956861 -4.625607 0.923088 -7.855243 -4.581171 -14.783705 -32.642079 -37.488169 -48.129819 0.573721 -39.270419 -0.920750 0.000000 0.000000 0.000000 13.023668 4.794502 -1.489579 -26.573899 23.854058 13.718078 -6.259054 20.803651 63.627017 98.039934 70.143270 -95.699324 0.000000 0.000000 0.000000 
0.967316 60.563816 2.673958 0.000000 0.000000 0.000000 -15.027681 -30.704736 0.236979 -63.952741 -4.804553 5.875207 87.915374 18.366744 -17.948619 -20.535836 12.702718 7.040805 0.000000 0.000000 0.000000 -17.139977 -28.189804 -0.655892 -88.908996 -0.585099 -2.588084 81.502749 -17.585840 29.861669 29.930446 -4.018960 26.342245 0.000000 0.000000 0.000000 -16.748961 -27.642453 0.074319 -0.913610 -0.724267 -0.389144 12.680771 -2.897018 -0.249391 14.856283 -2.676945 -1.756328 0.000000 0.000000 0.000000 13.070557 0.036112 -0.258822 -1.813946 -10.811683 -3.813127 0.000000 0.000000 0.000000 10.919431 -4.414928 0.871979 -7.707518 -4.052704 -14.290220 -33.675380 -37.782001 -48.777270 0.602528 -38.556469 -0.785784 0.000000 0.000000 0.000000 12.791327 5.039092 -1.334542 -26.814194 23.824241 14.240639 -6.415688 19.705210 62.827181 95.490942 70.589718 -92.874194 0.000000 0.000000 0.000000 
